<?xml version="1.0" encoding="UTF-8"?>
<svg version="1.1" viewBox="0 0 2048 2048" width="512" height="512" xmlns="http://www.w3.org/2000/svg">
<path transform="translate(804,726)" d="m0 0h14l24 2 19 3 26 7 25 10 21 11 18 12 16 13 12 11 11 11 9 11 10 13 12 19 2 5 3-3 7-12 12-17 14-17 20-20 14-11 17-12 18-10 19-9 27-9 24-5 15-2 16-1h16l26 2 24 4 23 6 18 6 21 9 18 10 17 11 17 13 14 12 12 11 7 7 6 5 7 8 9 9 7 8 8 8 7 8 16 17 30 30 11 9 14 11 18 12 23 12 22 8 22 5 21 3h37l19-3 21-6 19-8 14-8 14-11 12-11 11-14 9-14 8-17 6-18 4-22 1-23 3-11 6-9 8-6 7-3 11-1 9 2 10 6 10 12 11 18 12 23 10 24 7 21 6 26 4 31v38l-2 20-5 26-7 24-9 24-12 25-11 19-10 15-9 12-13 16-15 16-13 13-8 7-16 13-15 11-12 8-21 13-26 14-28 13-26 10-30 10-35 9-28 6-40 6-28 3-30 2h-64l-43-3-40-5-35-6-41-9-34-10-29-10-26-11-29-14-27-16-14-10-12-9-11-9-15-14-17-17-9-11-10-13-10-15-9-16-3-5v-2h-2l-2 6-10 17-8 12-12 16-11 13-11 12-8 8-8 7-16 13-18 13-28 17-27 14-28 12-28 10-29 9-38 9-31 6-43 6-44 4-16 1h-65l-41-3-37-5-27-5-31-7-31-9-24-8-27-11-24-11-21-11-25-15-14-10-11-8-11-9-13-11-16-15-7-7-7-8-12-14-13-18-11-17-12-22-11-24-11-33-6-27-3-24-1-23 1-21 4-28 6-26 8-24 9-21 13-25 11-17 9-11 10-6 8-2 12 1 10 5 6 5 5 8 2 7 1 8 1 20 3 17 4 15 9 21 10 16 8 10 12 13 11 9 14 9 15 8 19 7 17 4 15 2h37l21-3 25-6 21-8 21-11 15-10 12-9 14-12 10-9 29-29 1-2h2l2-4 9-9 7-8 7-7 7-8 8-8 7-8h2l1-3 8-7 9-9 11-9 15-12 24-16 18-10 23-10 19-6 25-6 27-4z" fill="#62FE76"/>
</svg>
